<svg xmlns="http://www.w3.org/2000/svg" height="32" width="32" version="1.1" viewBox="0 0 8.4666665 8.4666669">
 <defs>
  <radialGradient id="radialGradient4495" gradientUnits="userSpaceOnUse" cy="4.65" cx="3.77" gradientTransform="matrix(1.39 -.00779 .00818 1.46 -1.52 -2.05)" r="4.11">
   <stop stop-color="#2e2e37" stop-opacity=".00889" offset="0"/>
   <stop stop-color="#2b2b34" stop-opacity=".111" offset=".146"/>
   <stop stop-color="#24242c" offset=".574"/>
   <stop stop-color="#1e1e24" stop-opacity="0" offset="1"/>
  </radialGradient>
 </defs>
 <path d="m4.24 2.98c0.45-0.89 0.46-1.09 0.91-1.72 0.38-0.455 0.51-0.509 0.78-0.22 0.63 0.8 0.66 1.59 0.27 3.17-0.41 1.24-0.93 2.26-1.51 2.78-0.5 0.37-0.91 0.73-1.36 0.72-0.5-0.02-0.69-0.14-1.02-0.75-0.42-0.93-0.38-1.65-0.29-2.65 0.19-0.93 0.58-1.74 1.07-2.52 0.5-0.936 0.85-0.76 1.04-1.02 0.19-0.281 0.12-0.357-0.12-0.481-0.39-0.181-0.89 0.097-1.16 0.279-0.81 0.542-1.45 1.24-1.95 2.09-0.49 0.86-0.734 1.73-0.734 2.6 0.0556 1.81 1.29 3.17 3.03 3.19 0.672 0 1.32-0.154 1.94-0.461 1.28-0.7 2.28-1.8 2.83-3.05 0.41-1.08 0.58-2.21 0.2-3.24-0.28-0.716-0.83-1.24-1.48-1.46-0.24-0.088-0.37-0.122-0.77-0.132-0.94-0.0446-2.63 1.02-2.71 2.6-0.02 0.46 0.4 1.01 0.67 0.91 0.11-0.07 0.36-0.64 0.36-0.64z" fill="url(#radialGradient4495)"/>
 <path fill="#f2f2f4" d="m4.21 2.61c0.42-0.84 0.5-1.27 1.01-1.69 0.31-0.259 0.48-0.302 0.79-0.046 0.95 0.856 0.75 2.41 0.47 3.36-0.33 1.14-0.74 1.99-1.72 2.93-0.58 0.46-0.87 0.71-1.41 0.71-0.62 0-0.9-0.22-1.23-0.82-0.48-1.1-0.48-1.97-0.25-2.93 0.25-0.99 0.77-1.88 1.23-2.62 0.33-0.48 0.4-0.521 0.77-0.712 0.1-0.052 0.25-0.194 0.16-0.278-0.32-0.171-0.85 0.092-1.1 0.264-0.76 0.511-1.37 1.17-1.84 1.98-0.463 0.812-0.694 1.63-0.694 2.45 0.0525 1.71 1.22 2.99 2.86 3.01 0.635 0 1.25-0.145 1.83-0.435 1.22-0.66 2.16-1.7 2.68-2.88 0.38-1.01 0.54-2.07 0.19-3.05-0.27-0.67-0.79-1.17-1.4-1.38-0.24-0.079-0.4-0.143-0.73-0.143-0.85-0.056-2.33 0.913-2.4 2.41-0.03 0.43 0.33 0.79 0.38 0.68z"/>
</svg>
