<svg xmlns="http://www.w3.org/2000/svg" height="32" width="32" version="1.1" viewBox="0 0 8.4666665 8.4666669">
 <path d="m4.21 2.61c0.42-0.84 0.5-1.27 1.01-1.69 0.31-0.259 0.53-0.213 0.79-0.046 0.95 0.856 0.75 2.41 0.47 3.36-0.33 1.14-0.83 2.27-1.72 2.93-0.47 0.35-0.87 0.71-1.41 0.71-0.62 0-0.92-0.36-1.23-0.82-0.49-1-0.48-1.97-0.25-2.93 0.25-0.99 0.77-1.88 1.23-2.62 0.33-0.48 0.4-0.525 0.77-0.716 0.103-0.0525 0.246-0.194 0.158-0.278-0.316-0.171-0.845 0.0919-1.1 0.264-0.76 0.511-1.37 1.17-1.84 1.98-0.463 0.812-0.694 1.63-0.694 2.45 0.0525 1.71 1.22 2.99 2.86 3.01 0.635 0 1.25-0.145 1.83-0.435 1.22-0.66 2.16-1.7 2.68-2.88 0.39-1.02 0.546-2.08 0.193-3.06-0.271-0.672-0.786-1.17-1.4-1.38-0.232-0.0777-0.535-0.106-0.731-0.12-0.83-0.118-2.33 0.89-2.4 2.39-0.0214 0.433 0.339 0.793 0.382 0.677z" stroke="#6b6b6b" stroke-width=".529" fill="#f2f2f4"/>
</svg>
