<svg xmlns="http://www.w3.org/2000/svg" height="32" width="32" version="1.1" viewBox="0 0 8.4666665 8.4666669">
 <path d="m4.08 291c0.419-0.844 0.627-1.2 1.14-1.62 0.312-0.257 0.642-0.351 1.04-0.158 0.307 0.189 0.512 0.37 0.652 0.712 0.14 0.338 0.21 0.71 0.21 1.12 0 0.522-0.0898 1.09-0.27 1.69-0.176 0.602-0.432 1.18-0.766 1.73-0.334 0.547-0.738 0.996-1.21 1.34-0.474 0.345-0.985 0.518-1.53 0.518-0.613 0-1.08-0.231-1.39-0.694-0.312-0.463-0.468-1.01-0.468-1.65 0-0.459 0.0622-0.948 0.187-1.47s0.308-1.02 0.551-1.49c0.242-0.474 0.52-0.871 0.832-1.19 0.305-0.316 0.437-0.401 0.812-0.592 0.103-0.0525 0.246-0.194 0.158-0.278-0.316-0.171-0.845 0.0919-1.1 0.264-0.76 0.511-1.37 1.17-1.84 1.98-0.463 0.812-0.694 1.63-0.694 2.45 0 0.562 0.118 1.07 0.353 1.54 0.239 0.459 0.577 0.819 1.01 1.08 0.437 0.257 0.939 0.386 1.5 0.386 0.635 0 1.25-0.145 1.83-0.435 0.584-0.294 1.11-0.692 1.58-1.2 0.47-0.507 0.838-1.07 1.1-1.68 0.264-0.617 0.397-1.24 0.397-1.86 0-0.433-0.0684-0.834-0.204-1.2-0.132-0.367-0.283-0.564-0.53-0.836-0.246-0.276-0.503-0.422-0.871-0.545-0.232-0.0777-0.535-0.106-0.731-0.12-0.83-0.118-2.33 0.89-2.4 2.39 0.0674 0.255 0.618-0.0817 0.661-0.198z" transform="translate(0 -289)" stroke="#d4d4d4" stroke-width=".2" fill="#f2f2f4"/>
</svg>
