<svg xmlns:rdf="http://www.w3.org/1999/02/22-rdf-syntax-ns#" xmlns="http://www.w3.org/2000/svg" height="32" width="32" version="1.1" xmlns:cc="http://creativecommons.org/ns#" xmlns:xlink="http://www.w3.org/1999/xlink" viewBox="0 0 8.4666665 8.4666669" xmlns:dc="http://purl.org/dc/elements/1.1/">
 <defs>
  <linearGradient id="linearGradient5003" y2="-21.8" gradientUnits="userSpaceOnUse" x2="-7.83" gradientTransform="translate(14.1 24.8)" y1="-21.8" x1="-9.6">
   <stop stop-color="#5e5e71" stop-opacity=".518" offset="0"/>
   <stop stop-color="#d0d0d8" offset=".503"/>
   <stop stop-color="#9c9ca9" stop-opacity=".192" offset="1"/>
  </linearGradient>
  <linearGradient id="linearGradient5001" y2="4.23" gradientUnits="userSpaceOnUse" x2="8.04" gradientTransform="matrix(1 0 0 .987 -.0000010 .00364)" y1="4.23" x1=".358">
   <stop stop-opacity=".566" stop-color="#2e2e37" offset="0"/>
   <stop stop-color="#d6d6dd" offset=".574"/>
   <stop stop-opacity=".184" stop-color="#5a5a67" offset="1"/>
  </linearGradient>
 </defs>
 <rect fill-opacity="0" height="8.47" width="8.47" y="-4.55e-7" x="-2.81e-7"/>
 <path d="m5.96 1.35c0.58 0.74 0.54 1.84 0.26 2.78-0.21 0.54-1.46 3.23-2.79 3.1-1.05-0.18-1.47-1.65-1.18-2.88 0.85-2.85 1.25-2.8 1.74-3.88-2.17 0.204-3.58 2.04-3.63 4.63 0.051 1.69 1.22 2.96 2.86 2.98 2.69-0.1 3.78-1.68 4.51-3.28 0.74-1.81 0.2-4.44-1.94-4.52-5.93-0.097-3.88 4.01-2.54 5.06 0.44-0.65 1.75-4.75 2.71-3.99z" stroke-width=".994" fill="url(#linearGradient5001)"/>
 <path d="m5.8 1.16c0.86 0.78 0.68 2.18 0.43 3.04-0.34 0.91-1.67 3.36-2.83 3.28-1.53-0.23-1.59-2.26-1.33-3.38 0.76-2.61 1.5-2.27 1.95-3.26-2.55 0.29-3.27 2.59-3.28 4.23 0.044 1.55 1.1 2.7 2.58 2.72 2.42-0.09 3.4-1.53 4.07-2.99 0.66-1.66 0.17-4.06-1.75-4.13-5.36-0.089-3.61 3.15-2.4 4.11 0.4-0.59 1.7-4.31 2.56-3.62z" fill-opacity=".827" stroke-width=".902" fill="#fff"/>
 <ellipse rx=".887" cy="3.02" ry=".981" cx="5.4" fill="url(#linearGradient5003)"/>
 <ellipse fill-opacity=".827" rx=".734" ry=".812" cy="3.02" cx="5.4" fill="#fff"/>
</svg>
