<svg xmlns="http://www.w3.org/2000/svg" height="24" width="24" version="1.1" viewBox="0 0 6.3499999 6.3500002">
 <g transform="matrix(.732 0 0 .732 .0205 -211)">
  <g fill-rule="evenodd" transform="matrix(.32 0 0 .32 -9.04 200)">
   <path fill="#019ddf" d="m37.1 304c-0.339-0.0206-0.703-0.202-0.718-0.744l2.7-17.5c0.14-0.734 0.405-0.816 0.969-0.893l7.47-0.0295c1.74 0.125 4.84 0.784 4.71 4.41-0.2 1.79-0.379 4.06-2.27 5.87-1.09 0.848-2.13 1.74-3.99 1.88l-2.52 0.0781c-0.778 0.114-0.754 0.284-0.943 1.44l-0.552 4.5c-0.0591 0.626-0.38 0.97-0.912 0.946z"/>
   <path fill-opacity=".920" fill="#002a80" d="m32.4 301c-0.673 0.00002-0.856 0.006-0.85-0.85l3.17-20c0.165-0.839 0.514-0.904 1.18-0.992l8.58 0.0119c2.57 0.201 5.99 0.85 5.84 5-0.236 2.04-0.449 4.64-2.69 6.71-1.29 0.969-2.85 1.69-5.04 1.85l-3.56-0.0591c-0.921 0.13-0.988 0.567-1.21 1.89l-1.01 6.61z"/>
  </g>
 </g>
</svg>
